<svg xmlns="http://www.w3.org/2000/svg" xmlns:xlink="http://www.w3.org/1999/xlink" width="500" zoomAndPan="magnify" viewBox="0 0 375 374.999991" height="500" preserveAspectRatio="xMidYMid meet" version="1.0"><defs><clipPath id="fee9176dcf"><path d="M 187.5 0 C 83.945312 0 0 83.945312 0 187.5 C 0 291.054688 83.945312 375 187.5 375 C 291.054688 375 375 291.054688 375 187.5 C 375 83.945312 291.054688 0 187.5 0 Z M 187.5 0 " clip-rule="nonzero"/></clipPath><clipPath id="9231bc8b57"><path d="M 37.5 106 L 337.5 106 L 337.5 307 L 37.5 307 Z M 37.5 106 " clip-rule="nonzero"/></clipPath></defs><g clip-path="url(#fee9176dcf)"><rect x="-37.5" width="450" fill="#ffffff" y="-37.499999" height="449.999989" fill-opacity="1"/></g><g clip-path="url(#9231bc8b57)"><path fill="#000000" d="M 332.328125 106.664062 L 42.671875 106.664062 C 42.332031 106.664062 41.996094 106.699219 41.664062 106.765625 C 41.332031 106.832031 41.007812 106.929688 40.691406 107.058594 C 40.378906 107.1875 40.082031 107.347656 39.796875 107.535156 C 39.515625 107.726562 39.253906 107.941406 39.015625 108.179688 C 38.773438 108.421875 38.558594 108.679688 38.371094 108.964844 C 38.183594 109.246094 38.023438 109.542969 37.894531 109.859375 C 37.761719 110.171875 37.664062 110.496094 37.597656 110.828125 C 37.53125 111.160156 37.5 111.5 37.5 111.839844 L 37.5 149.816406 C 37.5 150.15625 37.53125 150.492188 37.597656 150.828125 C 37.664062 151.160156 37.761719 151.484375 37.894531 151.796875 C 38.023438 152.109375 38.183594 152.410156 38.371094 152.691406 C 38.558594 152.972656 38.773438 153.234375 39.015625 153.476562 C 39.253906 153.714844 39.515625 153.929688 39.796875 154.117188 C 40.082031 154.308594 40.378906 154.46875 40.691406 154.597656 C 41.007812 154.726562 41.332031 154.824219 41.664062 154.890625 C 41.996094 154.957031 42.332031 154.992188 42.671875 154.992188 L 68.394531 154.992188 L 68.394531 187.796875 C 68.394531 189.746094 68.441406 191.691406 68.535156 193.640625 C 68.632812 195.585938 68.777344 197.53125 68.964844 199.46875 C 69.15625 201.410156 69.394531 203.34375 69.683594 205.273438 C 69.96875 207.199219 70.300781 209.121094 70.683594 211.03125 C 71.0625 212.945312 71.488281 214.84375 71.960938 216.734375 C 72.4375 218.625 72.957031 220.503906 73.523438 222.371094 C 74.085938 224.234375 74.699219 226.085938 75.355469 227.921875 C 76.011719 229.757812 76.714844 231.574219 77.460938 233.375 C 78.207031 235.175781 78.996094 236.957031 79.828125 238.71875 C 80.660156 240.480469 81.539062 242.222656 82.457031 243.941406 C 83.375 245.660156 84.335938 247.355469 85.339844 249.027344 C 86.339844 250.699219 87.382812 252.347656 88.464844 253.96875 C 89.550781 255.589844 90.671875 257.179688 91.832031 258.746094 C 92.992188 260.3125 94.191406 261.847656 95.429688 263.355469 C 96.664062 264.863281 97.9375 266.339844 99.246094 267.78125 C 100.554688 269.226562 101.898438 270.636719 103.277344 272.015625 C 104.65625 273.394531 106.066406 274.738281 107.511719 276.046875 C 108.957031 277.355469 110.433594 278.628906 111.9375 279.867188 C 113.445312 281.101562 114.980469 282.300781 116.546875 283.460938 C 118.113281 284.625 119.707031 285.746094 121.328125 286.828125 C 122.949219 287.910156 124.59375 288.953125 126.265625 289.957031 C 127.9375 290.957031 129.632812 291.917969 131.351562 292.839844 C 133.074219 293.757812 134.8125 294.632812 136.574219 295.464844 C 138.335938 296.300781 140.117188 297.089844 141.917969 297.835938 C 143.71875 298.582031 145.539062 299.28125 147.375 299.941406 C 149.210938 300.597656 151.058594 301.207031 152.925781 301.773438 C 154.789062 302.339844 156.667969 302.859375 158.558594 303.332031 C 160.449219 303.804688 162.351562 304.234375 164.261719 304.613281 C 166.175781 304.992188 168.09375 305.328125 170.023438 305.613281 C 171.953125 305.898438 173.886719 306.136719 175.824219 306.328125 C 177.765625 306.519531 179.707031 306.664062 181.65625 306.757812 C 183.601562 306.855469 185.550781 306.902344 187.5 306.902344 C 189.449219 306.902344 191.398438 306.855469 193.34375 306.757812 C 195.292969 306.664062 197.234375 306.519531 199.175781 306.328125 C 201.113281 306.136719 203.046875 305.898438 204.976562 305.613281 C 206.90625 305.328125 208.824219 304.992188 210.738281 304.613281 C 212.648438 304.234375 214.550781 303.804688 216.441406 303.332031 C 218.332031 302.859375 220.210938 302.339844 222.074219 301.773438 C 223.941406 301.207031 225.789062 300.597656 227.625 299.941406 C 229.460938 299.28125 231.28125 298.582031 233.082031 297.835938 C 234.882812 297.089844 236.664062 296.300781 238.425781 295.464844 C 240.1875 294.632812 241.925781 293.757812 243.648438 292.839844 C 245.367188 291.917969 247.0625 290.957031 248.734375 289.957031 C 250.40625 288.953125 252.050781 287.910156 253.671875 286.828125 C 255.292969 285.746094 256.886719 284.625 258.453125 283.460938 C 260.015625 282.300781 261.554688 281.101562 263.0625 279.867188 C 264.566406 278.628906 266.042969 277.355469 267.488281 276.046875 C 268.929688 274.738281 270.34375 273.394531 271.722656 272.015625 C 273.097656 270.636719 274.441406 269.226562 275.753906 267.78125 C 277.0625 266.339844 278.335938 264.863281 279.570312 263.355469 C 280.808594 261.847656 282.007812 260.3125 283.167969 258.746094 C 284.328125 257.179688 285.449219 255.589844 286.535156 253.96875 C 287.617188 252.347656 288.660156 250.699219 289.660156 249.027344 C 290.664062 247.355469 291.625 245.660156 292.542969 243.941406 C 293.460938 242.222656 294.335938 240.480469 295.171875 238.71875 C 296.003906 236.957031 296.792969 235.175781 297.539062 233.375 C 298.285156 231.574219 298.988281 229.757812 299.644531 227.921875 C 300.300781 226.085938 300.914062 224.234375 301.476562 222.371094 C 302.042969 220.503906 302.5625 218.625 303.039062 216.734375 C 303.511719 214.84375 303.9375 212.945312 304.316406 211.03125 C 304.699219 209.121094 305.03125 207.199219 305.316406 205.273438 C 305.605469 203.34375 305.84375 201.410156 306.035156 199.46875 C 306.222656 197.53125 306.367188 195.585938 306.464844 193.640625 C 306.558594 191.691406 306.605469 189.746094 306.605469 187.796875 L 306.605469 154.992188 L 332.328125 154.992188 C 332.667969 154.992188 333.003906 154.957031 333.335938 154.890625 C 333.667969 154.824219 333.992188 154.726562 334.308594 154.597656 C 334.621094 154.46875 334.917969 154.308594 335.203125 154.117188 C 335.484375 153.929688 335.746094 153.714844 335.984375 153.476562 C 336.226562 153.234375 336.441406 152.972656 336.628906 152.691406 C 336.816406 152.410156 336.976562 152.109375 337.105469 151.796875 C 337.238281 151.484375 337.335938 151.160156 337.402344 150.828125 C 337.46875 150.492188 337.5 150.15625 337.5 149.816406 L 337.5 111.839844 C 337.5 111.5 337.46875 111.160156 337.402344 110.828125 C 337.335938 110.496094 337.238281 110.171875 337.105469 109.859375 C 336.976562 109.542969 336.816406 109.246094 336.628906 108.964844 C 336.441406 108.679688 336.226562 108.421875 335.984375 108.179688 C 335.746094 107.941406 335.484375 107.726562 335.203125 107.535156 C 334.917969 107.347656 334.621094 107.1875 334.308594 107.058594 C 333.992188 106.929688 333.667969 106.832031 333.335938 106.765625 C 333.003906 106.699219 332.667969 106.664062 332.328125 106.664062 Z M 296.261719 187.796875 C 290.285156 332.09375 84.6875 332.039062 78.738281 187.792969 L 78.738281 154.992188 L 296.261719 154.992188 Z M 327.15625 144.644531 C 291.425781 144.644531 83.589844 144.644531 47.84375 144.644531 L 47.84375 117.011719 L 327.15625 117.011719 Z M 327.15625 144.644531 " fill-opacity="1" fill-rule="nonzero"/></g><path fill="#000000" d="M 187.5 275.101562 C 189.113281 275.097656 190.726562 275.015625 192.332031 274.855469 C 193.941406 274.699219 195.535156 274.460938 197.117188 274.144531 C 198.703125 273.828125 200.265625 273.433594 201.8125 272.964844 C 203.355469 272.492188 204.875 271.949219 206.367188 271.332031 C 207.859375 270.710938 209.316406 270.019531 210.738281 269.257812 C 212.164062 268.496094 213.546875 267.667969 214.890625 266.769531 C 216.230469 265.871094 217.527344 264.910156 218.777344 263.886719 C 220.023438 262.863281 221.21875 261.777344 222.359375 260.636719 C 223.503906 259.496094 224.585938 258.300781 225.609375 257.050781 C 226.636719 255.804688 227.597656 254.507812 228.496094 253.164062 C 229.390625 251.824219 230.222656 250.441406 230.984375 249.015625 C 231.746094 247.589844 232.4375 246.132812 233.054688 244.640625 C 233.671875 243.152344 234.21875 241.632812 234.6875 240.085938 C 235.15625 238.542969 235.550781 236.976562 235.867188 235.394531 C 236.183594 233.8125 236.421875 232.214844 236.582031 230.609375 C 236.742188 229 236.824219 227.390625 236.824219 225.773438 C 234.125 160.359375 140.886719 160.339844 138.175781 225.773438 C 138.175781 227.390625 138.257812 229 138.417969 230.609375 C 138.578125 232.214844 138.816406 233.808594 139.132812 235.394531 C 139.449219 236.976562 139.84375 238.542969 140.3125 240.085938 C 140.78125 241.632812 141.324219 243.148438 141.945312 244.640625 C 142.5625 246.132812 143.253906 247.589844 144.015625 249.015625 C 144.777344 250.4375 145.609375 251.824219 146.503906 253.164062 C 147.402344 254.507812 148.363281 255.804688 149.390625 257.050781 C 150.414062 258.300781 151.496094 259.496094 152.640625 260.636719 C 153.78125 261.777344 154.976562 262.863281 156.222656 263.886719 C 157.472656 264.910156 158.765625 265.871094 160.109375 266.769531 C 161.453125 267.667969 162.835938 268.496094 164.257812 269.257812 C 165.683594 270.019531 167.140625 270.710938 168.632812 271.328125 C 170.125 271.949219 171.644531 272.492188 173.1875 272.964844 C 174.734375 273.433594 176.296875 273.828125 177.882812 274.144531 C 179.464844 274.460938 181.058594 274.695312 182.667969 274.855469 C 184.273438 275.015625 185.886719 275.097656 187.5 275.101562 Z M 187.5 186.796875 C 188.777344 186.796875 190.050781 186.859375 191.320312 186.988281 C 192.589844 187.113281 193.851562 187.300781 195.101562 187.550781 C 196.351562 187.800781 197.589844 188.113281 198.808594 188.484375 C 200.03125 188.855469 201.230469 189.285156 202.410156 189.773438 C 203.589844 190.261719 204.742188 190.808594 205.867188 191.410156 C 206.992188 192.011719 208.085938 192.667969 209.144531 193.378906 C 210.207031 194.085938 211.230469 194.847656 212.214844 195.65625 C 213.203125 196.464844 214.148438 197.324219 215.050781 198.226562 C 215.953125 199.128906 216.808594 200.070312 217.617188 201.058594 C 218.425781 202.042969 219.1875 203.066406 219.898438 204.128906 C 220.605469 205.191406 221.261719 206.285156 221.863281 207.410156 C 222.464844 208.535156 223.011719 209.6875 223.5 210.863281 C 223.988281 212.042969 224.417969 213.242188 224.792969 214.464844 C 225.164062 215.683594 225.472656 216.921875 225.722656 218.171875 C 225.972656 219.425781 226.160156 220.683594 226.289062 221.953125 C 226.414062 223.226562 226.476562 224.5 226.480469 225.773438 C 224.65625 277.351562 150.351562 277.367188 148.519531 225.773438 C 148.519531 224.5 148.585938 223.226562 148.710938 221.957031 C 148.839844 220.6875 149.027344 219.425781 149.277344 218.171875 C 149.527344 216.921875 149.835938 215.6875 150.207031 214.464844 C 150.578125 213.242188 151.011719 212.042969 151.5 210.863281 C 151.988281 209.6875 152.535156 208.535156 153.136719 207.410156 C 153.738281 206.285156 154.394531 205.191406 155.101562 204.128906 C 155.8125 203.070312 156.570312 202.046875 157.382812 201.058594 C 158.191406 200.070312 159.046875 199.128906 159.949219 198.226562 C 160.851562 197.324219 161.796875 196.464844 162.785156 195.65625 C 163.769531 194.847656 164.792969 194.085938 165.855469 193.378906 C 166.914062 192.667969 168.007812 192.011719 169.132812 191.410156 C 170.257812 190.808594 171.410156 190.261719 172.589844 189.773438 C 173.769531 189.285156 174.96875 188.855469 176.191406 188.484375 C 177.410156 188.113281 178.648438 187.800781 179.898438 187.550781 C 181.148438 187.300781 182.410156 187.113281 183.679688 186.988281 C 184.949219 186.859375 186.222656 186.796875 187.5 186.796875 Z M 187.5 186.796875 " fill-opacity="1" fill-rule="nonzero"/><path fill="#000000" d="M 187.5 257.945312 C 188.554688 257.941406 189.605469 257.890625 190.652344 257.785156 C 191.699219 257.679688 192.738281 257.527344 193.773438 257.320312 C 194.804688 257.113281 195.824219 256.855469 196.832031 256.550781 C 197.839844 256.242188 198.832031 255.886719 199.804688 255.484375 C 200.777344 255.082031 201.726562 254.628906 202.65625 254.132812 C 203.585938 253.636719 204.488281 253.09375 205.363281 252.511719 C 206.238281 251.925781 207.082031 251.296875 207.894531 250.628906 C 208.710938 249.960938 209.488281 249.253906 210.234375 248.511719 C 210.980469 247.765625 211.683594 246.984375 212.351562 246.171875 C 213.023438 245.359375 213.648438 244.511719 214.234375 243.636719 C 214.820312 242.761719 215.359375 241.859375 215.855469 240.929688 C 216.355469 240.003906 216.804688 239.050781 217.207031 238.078125 C 217.609375 237.105469 217.964844 236.117188 218.273438 235.109375 C 218.578125 234.101562 218.835938 233.082031 219.042969 232.046875 C 219.25 231.015625 219.402344 229.976562 219.507812 228.925781 C 219.613281 227.878906 219.664062 226.828125 219.664062 225.773438 C 218.160156 183.210938 156.847656 183.199219 155.335938 225.773438 C 155.335938 226.828125 155.386719 227.878906 155.492188 228.925781 C 155.597656 229.976562 155.75 231.015625 155.957031 232.046875 C 156.164062 233.082031 156.421875 234.101562 156.726562 235.109375 C 157.035156 236.117188 157.386719 237.105469 157.792969 238.078125 C 158.195312 239.050781 158.644531 240.003906 159.144531 240.929688 C 159.640625 241.859375 160.179688 242.761719 160.765625 243.636719 C 161.351562 244.511719 161.976562 245.359375 162.644531 246.171875 C 163.316406 246.984375 164.019531 247.765625 164.765625 248.511719 C 165.511719 249.253906 166.289062 249.960938 167.105469 250.628906 C 167.917969 251.296875 168.761719 251.925781 169.636719 252.511719 C 170.511719 253.09375 171.414062 253.636719 172.34375 254.132812 C 173.273438 254.628906 174.222656 255.082031 175.195312 255.484375 C 176.167969 255.886719 177.160156 256.242188 178.167969 256.550781 C 179.175781 256.855469 180.195312 257.113281 181.226562 257.320312 C 182.261719 257.523438 183.300781 257.679688 184.347656 257.785156 C 185.394531 257.890625 186.445312 257.941406 187.5 257.945312 Z M 187.5 203.953125 C 188.210938 203.957031 188.917969 204 189.625 204.074219 C 190.332031 204.152344 191.035156 204.261719 191.730469 204.40625 C 192.425781 204.550781 193.113281 204.726562 193.789062 204.9375 C 194.46875 205.148438 195.136719 205.394531 195.789062 205.671875 C 196.445312 205.945312 197.085938 206.253906 197.707031 206.59375 C 198.332031 206.933594 198.941406 207.300781 199.527344 207.699219 C 200.117188 208.097656 200.683594 208.523438 201.230469 208.976562 C 201.777344 209.429688 202.300781 209.910156 202.800781 210.414062 C 203.300781 210.917969 203.777344 211.445312 204.226562 211.996094 C 204.675781 212.550781 205.09375 213.121094 205.488281 213.710938 C 205.878906 214.304688 206.242188 214.914062 206.578125 215.542969 C 206.910156 216.171875 207.210938 216.8125 207.480469 217.46875 C 207.753906 218.125 207.988281 218.796875 208.195312 219.476562 C 208.398438 220.15625 208.570312 220.84375 208.710938 221.542969 C 208.847656 222.238281 208.949219 222.941406 209.019531 223.648438 C 209.089844 224.355469 209.125 225.066406 209.125 225.773438 C 209.125 226.484375 209.089844 227.195312 209.019531 227.902344 C 208.949219 228.609375 208.847656 229.3125 208.710938 230.007812 C 208.570312 230.707031 208.398438 231.394531 208.195312 232.074219 C 207.988281 232.753906 207.753906 233.421875 207.480469 234.082031 C 207.210938 234.738281 206.910156 235.378906 206.578125 236.007812 C 206.242188 236.636719 205.878906 237.246094 205.488281 237.835938 C 205.09375 238.429688 204.675781 239 204.226562 239.550781 C 203.777344 240.101562 203.304688 240.632812 202.800781 241.136719 C 202.300781 241.640625 201.777344 242.121094 201.230469 242.574219 C 200.683594 243.027344 200.117188 243.453125 199.527344 243.851562 C 198.941406 244.25 198.332031 244.617188 197.710938 244.957031 C 197.085938 245.296875 196.445312 245.605469 195.789062 245.878906 C 195.136719 246.15625 194.46875 246.402344 193.792969 246.613281 C 193.113281 246.824219 192.425781 247 191.730469 247.144531 C 191.035156 247.289062 190.332031 247.398438 189.625 247.476562 C 188.917969 247.550781 188.210938 247.59375 187.5 247.597656 C 186.789062 247.59375 186.082031 247.550781 185.375 247.476562 C 184.667969 247.398438 183.96875 247.289062 183.273438 247.144531 C 182.574219 247 181.886719 246.824219 181.210938 246.613281 C 180.53125 246.402344 179.867188 246.15625 179.210938 245.878906 C 178.554688 245.605469 177.917969 245.296875 177.292969 244.957031 C 176.667969 244.617188 176.0625 244.25 175.472656 243.851562 C 174.882812 243.453125 174.316406 243.027344 173.769531 242.574219 C 173.222656 242.121094 172.699219 241.640625 172.199219 241.136719 C 171.699219 240.632812 171.222656 240.101562 170.777344 239.550781 C 170.328125 239 169.90625 238.429688 169.511719 237.835938 C 169.121094 237.246094 168.757812 236.636719 168.425781 236.007812 C 168.089844 235.378906 167.789062 234.738281 167.519531 234.082031 C 167.25 233.421875 167.011719 232.753906 166.804688 232.074219 C 166.601562 231.394531 166.429688 230.707031 166.292969 230.007812 C 166.152344 229.3125 166.050781 228.609375 165.980469 227.902344 C 165.910156 227.195312 165.878906 226.484375 165.878906 225.773438 C 165.878906 225.066406 165.910156 224.355469 165.980469 223.648438 C 166.050781 222.941406 166.152344 222.238281 166.292969 221.542969 C 166.429688 220.84375 166.601562 220.15625 166.804688 219.476562 C 167.011719 218.796875 167.25 218.128906 167.519531 217.46875 C 167.789062 216.8125 168.089844 216.171875 168.425781 215.542969 C 168.757812 214.914062 169.121094 214.304688 169.511719 213.714844 C 169.90625 213.121094 170.328125 212.550781 170.773438 212 C 171.222656 211.445312 171.699219 210.917969 172.199219 210.414062 C 172.699219 209.910156 173.222656 209.429688 173.769531 208.976562 C 174.316406 208.523438 174.882812 208.097656 175.472656 207.699219 C 176.058594 207.300781 176.667969 206.933594 177.292969 206.59375 C 177.917969 206.253906 178.554688 205.945312 179.210938 205.671875 C 179.863281 205.394531 180.53125 205.148438 181.210938 204.9375 C 181.886719 204.726562 182.574219 204.550781 183.269531 204.40625 C 183.964844 204.261719 184.667969 204.152344 185.375 204.074219 C 186.082031 204 186.789062 203.957031 187.5 203.953125 Z M 187.5 203.953125 " fill-opacity="1" fill-rule="nonzero"/><path fill="#000000" d="M 137.277344 178.300781 C 137.269531 177.863281 137.222656 177.429688 137.132812 177 C 137.039062 176.570312 136.910156 176.152344 136.738281 175.75 C 136.5625 175.347656 136.355469 174.960938 136.109375 174.601562 C 135.859375 174.238281 135.582031 173.902344 135.269531 173.59375 C 134.957031 173.285156 134.617188 173.011719 134.25 172.769531 C 133.882812 172.527344 133.496094 172.324219 133.089844 172.15625 C 132.683594 171.988281 132.265625 171.863281 131.835938 171.777344 C 131.40625 171.695312 130.972656 171.652344 130.53125 171.652344 C 130.09375 171.652344 129.660156 171.695312 129.226562 171.777344 C 128.796875 171.863281 128.378906 171.988281 127.972656 172.15625 C 127.566406 172.324219 127.179688 172.527344 126.816406 172.769531 C 126.449219 173.011719 126.109375 173.285156 125.796875 173.59375 C 125.484375 173.902344 125.203125 174.238281 124.957031 174.597656 C 124.710938 174.960938 124.5 175.34375 124.328125 175.75 C 124.15625 176.152344 124.023438 176.570312 123.933594 177 C 123.839844 177.429688 123.792969 177.863281 123.785156 178.300781 C 123.792969 178.738281 123.839844 179.175781 123.933594 179.601562 C 124.023438 180.03125 124.15625 180.449219 124.328125 180.851562 C 124.5 181.257812 124.710938 181.640625 124.957031 182.003906 C 125.203125 182.363281 125.484375 182.699219 125.796875 183.007812 C 126.109375 183.316406 126.449219 183.589844 126.8125 183.832031 C 127.179688 184.074219 127.566406 184.28125 127.972656 184.445312 C 128.378906 184.613281 128.796875 184.738281 129.226562 184.824219 C 129.660156 184.90625 130.09375 184.949219 130.53125 184.949219 C 130.972656 184.949219 131.40625 184.90625 131.835938 184.824219 C 132.265625 184.738281 132.683594 184.613281 133.089844 184.445312 C 133.496094 184.28125 133.882812 184.074219 134.25 183.832031 C 134.617188 183.59375 134.957031 183.316406 135.269531 183.007812 C 135.582031 182.699219 135.859375 182.367188 136.109375 182.003906 C 136.355469 181.640625 136.5625 181.257812 136.738281 180.851562 C 136.910156 180.449219 137.039062 180.03125 137.132812 179.601562 C 137.222656 179.175781 137.269531 178.738281 137.277344 178.300781 Z M 137.277344 178.300781 " fill-opacity="1" fill-rule="nonzero"/></svg>