<svg xmlns="http://www.w3.org/2000/svg" xmlns:xlink="http://www.w3.org/1999/xlink" width="500" zoomAndPan="magnify" viewBox="0 0 375 374.999991" height="500" preserveAspectRatio="xMidYMid meet" version="1.0"><defs><clipPath id="9879ddb20a"><path d="M 46.136719 43.386719 L 253.28125 43.386719 L 253.28125 227.515625 L 46.136719 227.515625 Z M 46.136719 43.386719 " clip-rule="nonzero"/></clipPath><clipPath id="3d4ae57f38"><path d="M 63.386719 43.386719 L 235.925781 43.386719 C 245.453125 43.386719 253.175781 51.109375 253.175781 60.636719 L 253.175781 210.265625 C 253.175781 219.792969 245.453125 227.515625 235.925781 227.515625 L 63.386719 227.515625 C 53.859375 227.515625 46.136719 219.792969 46.136719 210.265625 L 46.136719 60.636719 C 46.136719 51.109375 53.859375 43.386719 63.386719 43.386719 Z M 63.386719 43.386719 " clip-rule="nonzero"/></clipPath><clipPath id="52b164702d"><path d="M 144.65625 43.386719 L 329 43.386719 L 329 227.886719 L 144.65625 227.886719 Z M 144.65625 43.386719 " clip-rule="nonzero"/></clipPath><clipPath id="049342a4cf"><path d="M 46.136719 251.585938 L 225 251.585938 L 225 331.535156 L 46.136719 331.535156 Z M 46.136719 251.585938 " clip-rule="nonzero"/></clipPath><clipPath id="3e639dd71f"><path d="M 63.386719 251.585938 L 207.621094 251.585938 C 217.148438 251.585938 224.871094 259.308594 224.871094 268.835938 L 224.871094 314.285156 C 224.871094 323.8125 217.148438 331.535156 207.621094 331.535156 L 63.386719 331.535156 C 53.859375 331.535156 46.136719 323.8125 46.136719 314.285156 L 46.136719 268.835938 C 46.136719 259.308594 53.859375 251.585938 63.386719 251.585938 Z M 63.386719 251.585938 " clip-rule="nonzero"/></clipPath><clipPath id="8205b59194"><path d="M 257.699219 251.585938 L 328.949219 251.585938 L 328.949219 322.835938 L 257.699219 322.835938 Z M 257.699219 251.585938 " clip-rule="nonzero"/></clipPath><clipPath id="00a30fd916"><path d="M 248.835938 251.585938 L 306.707031 251.585938 L 306.707031 331.835938 L 248.835938 331.835938 Z M 248.835938 251.585938 " clip-rule="nonzero"/></clipPath><clipPath id="c407659626"><path d="M 266.085938 251.585938 L 289.457031 251.585938 C 298.984375 251.585938 306.707031 259.308594 306.707031 268.835938 L 306.707031 314.363281 C 306.707031 323.890625 298.984375 331.613281 289.457031 331.613281 L 266.085938 331.613281 C 256.558594 331.613281 248.835938 323.890625 248.835938 314.363281 L 248.835938 268.835938 C 248.835938 259.308594 256.558594 251.585938 266.085938 251.585938 Z M 266.085938 251.585938 " clip-rule="nonzero"/></clipPath><clipPath id="bfa3edd83a"><path d="M 248.839844 269.757812 L 329 269.757812 L 329 331.605469 L 248.839844 331.605469 Z M 248.839844 269.757812 " clip-rule="nonzero"/></clipPath><clipPath id="0c19926dae"><path d="M 248.839844 314.355469 L 248.839844 287.007812 C 248.839844 277.480469 256.5625 269.757812 266.089844 269.757812 L 311.613281 269.757812 C 321.140625 269.757812 328.863281 277.480469 328.863281 287.007812 L 328.863281 314.355469 C 328.863281 323.878906 321.140625 331.605469 311.613281 331.605469 L 266.089844 331.605469 C 256.5625 331.605469 248.839844 323.878906 248.839844 314.355469 Z M 248.839844 314.355469 " clip-rule="nonzero"/></clipPath></defs><g clip-path="url(#9879ddb20a)"><g clip-path="url(#3d4ae57f38)"><path fill="#4ea3ff" d="M 46.136719 43.386719 L 253.28125 43.386719 L 253.28125 227.515625 L 46.136719 227.515625 Z M 46.136719 43.386719 " fill-opacity="1" fill-rule="nonzero"/></g></g><g clip-path="url(#52b164702d)"><path fill="#4ea3ff" d="M 328.78125 135.449219 C 328.78125 136.957031 328.742188 138.460938 328.667969 139.96875 C 328.597656 141.472656 328.484375 142.972656 328.335938 144.472656 C 328.191406 145.972656 328.003906 147.46875 327.785156 148.957031 C 327.5625 150.449219 327.304688 151.933594 327.011719 153.410156 C 326.71875 154.886719 326.386719 156.359375 326.023438 157.820312 C 325.65625 159.28125 325.253906 160.730469 324.816406 162.175781 C 324.378906 163.617188 323.90625 165.046875 323.398438 166.464844 C 322.890625 167.882812 322.347656 169.289062 321.773438 170.679688 C 321.195312 172.074219 320.585938 173.449219 319.941406 174.8125 C 319.296875 176.171875 318.621094 177.519531 317.910156 178.847656 C 317.199219 180.175781 316.457031 181.488281 315.683594 182.78125 C 314.910156 184.070312 314.101562 185.34375 313.265625 186.597656 C 312.429688 187.851562 311.5625 189.082031 310.664062 190.292969 C 309.765625 191.5 308.839844 192.6875 307.882812 193.855469 C 306.925781 195.019531 305.945312 196.160156 304.933594 197.273438 C 303.921875 198.390625 302.882812 199.484375 301.816406 200.546875 C 300.75 201.613281 299.660156 202.652344 298.542969 203.664062 C 297.425781 204.675781 296.285156 205.660156 295.121094 206.613281 C 293.957031 207.570312 292.769531 208.496094 291.558594 209.394531 C 290.351562 210.292969 289.117188 211.160156 287.867188 211.996094 C 286.613281 212.835938 285.339844 213.640625 284.046875 214.414062 C 282.753906 215.1875 281.445312 215.929688 280.117188 216.640625 C 278.789062 217.351562 277.441406 218.027344 276.078125 218.671875 C 274.71875 219.316406 273.339844 219.929688 271.949219 220.503906 C 270.558594 221.082031 269.152344 221.625 267.734375 222.128906 C 266.316406 222.636719 264.882812 223.109375 263.441406 223.546875 C 262 223.984375 260.550781 224.386719 259.085938 224.753906 C 257.625 225.121094 256.15625 225.449219 254.679688 225.742188 C 253.199219 226.039062 251.71875 226.292969 250.226562 226.515625 C 248.734375 226.738281 247.242188 226.921875 245.742188 227.070312 C 244.242188 227.214844 242.742188 227.328125 241.234375 227.402344 C 239.730469 227.476562 238.226562 227.511719 236.71875 227.511719 C 235.210938 227.511719 233.707031 227.476562 232.199219 227.402344 C 230.695312 227.328125 229.195312 227.214844 227.695312 227.070312 C 226.195312 226.921875 224.699219 226.738281 223.210938 226.515625 C 221.71875 226.292969 220.234375 226.039062 218.757812 225.742188 C 217.28125 225.449219 215.808594 225.121094 214.347656 224.753906 C 212.886719 224.386719 211.4375 223.984375 209.992188 223.546875 C 208.550781 223.109375 207.121094 222.636719 205.703125 222.128906 C 204.285156 221.625 202.878906 221.082031 201.488281 220.503906 C 200.09375 219.929688 198.71875 219.316406 197.355469 218.671875 C 195.996094 218.027344 194.648438 217.351562 193.320312 216.640625 C 191.992188 215.929688 190.679688 215.1875 189.390625 214.414062 C 188.097656 213.640625 186.824219 212.835938 185.570312 211.996094 C 184.316406 211.160156 183.085938 210.292969 181.875 209.394531 C 180.667969 208.496094 179.480469 207.570312 178.3125 206.613281 C 177.148438 205.660156 176.007812 204.675781 174.894531 203.664062 C 173.777344 202.652344 172.6875 201.613281 171.621094 200.546875 C 170.554688 199.484375 169.515625 198.390625 168.503906 197.273438 C 167.492188 196.160156 166.507812 195.019531 165.554688 193.855469 C 164.597656 192.6875 163.671875 191.5 162.773438 190.292969 C 161.875 189.082031 161.007812 187.851562 160.171875 186.597656 C 159.335938 185.34375 158.527344 184.070312 157.753906 182.78125 C 156.980469 181.488281 156.238281 180.175781 155.527344 178.847656 C 154.816406 177.519531 154.140625 176.171875 153.496094 174.8125 C 152.851562 173.449219 152.238281 172.074219 151.664062 170.679688 C 151.085938 169.289062 150.546875 167.882812 150.039062 166.464844 C 149.53125 165.046875 149.058594 163.617188 148.621094 162.175781 C 148.183594 160.730469 147.78125 159.28125 147.414062 157.820312 C 147.046875 156.359375 146.71875 154.886719 146.425781 153.410156 C 146.128906 151.933594 145.875 150.449219 145.652344 148.957031 C 145.429688 147.46875 145.246094 145.972656 145.097656 144.472656 C 144.953125 142.972656 144.839844 141.472656 144.765625 139.96875 C 144.691406 138.460938 144.65625 136.957031 144.65625 135.449219 C 144.65625 133.941406 144.691406 132.4375 144.765625 130.933594 C 144.839844 129.425781 144.953125 127.925781 145.097656 126.425781 C 145.246094 124.925781 145.429688 123.433594 145.652344 121.941406 C 145.875 120.449219 146.128906 118.96875 146.425781 117.488281 C 146.71875 116.011719 147.046875 114.542969 147.414062 113.082031 C 147.78125 111.617188 148.183594 110.167969 148.621094 108.726562 C 149.058594 107.285156 149.53125 105.855469 150.039062 104.433594 C 150.546875 103.015625 151.085938 101.609375 151.664062 100.21875 C 152.238281 98.828125 152.851562 97.449219 153.496094 96.089844 C 154.140625 94.726562 154.816406 93.378906 155.527344 92.050781 C 156.238281 90.722656 156.980469 89.414062 157.753906 88.121094 C 158.527344 86.828125 159.335938 85.554688 160.171875 84.300781 C 161.007812 83.050781 161.875 81.820312 162.773438 80.609375 C 163.671875 79.398438 164.597656 78.210938 165.554688 77.046875 C 166.507812 75.882812 167.492188 74.742188 168.503906 73.625 C 169.515625 72.507812 170.554688 71.417969 171.621094 70.351562 C 172.6875 69.285156 173.777344 68.246094 174.894531 67.234375 C 176.007812 66.222656 177.148438 65.242188 178.3125 64.285156 C 179.480469 63.328125 180.667969 62.402344 181.875 61.503906 C 183.085938 60.605469 184.316406 59.738281 185.570312 58.902344 C 186.824219 58.066406 188.097656 57.261719 189.390625 56.484375 C 190.679688 55.710938 191.992188 54.96875 193.320312 54.257812 C 194.648438 53.546875 195.996094 52.871094 197.355469 52.226562 C 198.71875 51.582031 200.09375 50.972656 201.488281 50.394531 C 202.878906 49.820312 204.285156 49.277344 205.703125 48.769531 C 207.121094 48.261719 208.550781 47.789062 209.992188 47.351562 C 211.4375 46.914062 212.886719 46.511719 214.347656 46.144531 C 215.808594 45.78125 217.28125 45.449219 218.757812 45.15625 C 220.234375 44.863281 221.71875 44.605469 223.210938 44.382812 C 224.699219 44.164062 226.195312 43.976562 227.695312 43.832031 C 229.195312 43.683594 230.695312 43.570312 232.199219 43.5 C 233.707031 43.425781 235.210938 43.386719 236.71875 43.386719 C 238.226562 43.386719 239.730469 43.425781 241.234375 43.5 C 242.742188 43.570312 244.242188 43.683594 245.742188 43.832031 C 247.242188 43.976562 248.734375 44.164062 250.226562 44.382812 C 251.71875 44.605469 253.199219 44.863281 254.679688 45.15625 C 256.15625 45.449219 257.625 45.78125 259.085938 46.144531 C 260.550781 46.511719 262 46.914062 263.441406 47.351562 C 264.882812 47.789062 266.316406 48.261719 267.734375 48.769531 C 269.152344 49.277344 270.558594 49.820312 271.949219 50.394531 C 273.339844 50.972656 274.71875 51.582031 276.078125 52.226562 C 277.441406 52.871094 278.789062 53.546875 280.117188 54.257812 C 281.445312 54.96875 282.753906 55.710938 284.046875 56.484375 C 285.339844 57.261719 286.613281 58.066406 287.867188 58.902344 C 289.117188 59.738281 290.351562 60.605469 291.558594 61.503906 C 292.769531 62.402344 293.957031 63.328125 295.121094 64.285156 C 296.285156 65.242188 297.425781 66.222656 298.542969 67.234375 C 299.660156 68.246094 300.75 69.285156 301.816406 70.351562 C 302.882812 71.417969 303.921875 72.507812 304.933594 73.625 C 305.945312 74.742188 306.925781 75.882812 307.882812 77.046875 C 308.839844 78.210938 309.765625 79.398438 310.664062 80.609375 C 311.5625 81.820312 312.429688 83.050781 313.265625 84.300781 C 314.101562 85.554688 314.910156 86.828125 315.683594 88.121094 C 316.457031 89.414062 317.199219 90.722656 317.910156 92.050781 C 318.621094 93.378906 319.296875 94.726562 319.941406 96.089844 C 320.585938 97.449219 321.195312 98.828125 321.773438 100.21875 C 322.347656 101.609375 322.890625 103.015625 323.398438 104.433594 C 323.90625 105.855469 324.378906 107.285156 324.816406 108.726562 C 325.253906 110.167969 325.65625 111.617188 326.023438 113.082031 C 326.386719 114.542969 326.71875 116.011719 327.011719 117.488281 C 327.304688 118.96875 327.5625 120.449219 327.785156 121.941406 C 328.003906 123.433594 328.191406 124.925781 328.335938 126.425781 C 328.484375 127.925781 328.597656 129.425781 328.667969 130.933594 C 328.742188 132.4375 328.78125 133.941406 328.78125 135.449219 Z M 328.78125 135.449219 " fill-opacity="1" fill-rule="nonzero"/></g><g clip-path="url(#049342a4cf)"><g clip-path="url(#3e639dd71f)"><path fill="#1dbdfb" d="M 46.136719 251.585938 L 224.769531 251.585938 L 224.769531 331.535156 L 46.136719 331.535156 Z M 46.136719 251.585938 " fill-opacity="1" fill-rule="nonzero"/></g></g><g clip-path="url(#8205b59194)"><path fill="#00d2f2" d="M 328.855469 287.164062 C 328.855469 288.328125 328.796875 289.492188 328.683594 290.652344 C 328.570312 291.8125 328.398438 292.960938 328.171875 294.105469 C 327.945312 295.25 327.664062 296.378906 327.324219 297.492188 C 326.984375 298.605469 326.59375 299.703125 326.148438 300.78125 C 325.703125 301.855469 325.203125 302.90625 324.65625 303.9375 C 324.105469 304.964844 323.507812 305.960938 322.859375 306.929688 C 322.210938 307.898438 321.519531 308.835938 320.78125 309.734375 C 320.039062 310.636719 319.257812 311.496094 318.433594 312.320312 C 317.613281 313.144531 316.75 313.925781 315.847656 314.667969 C 314.949219 315.40625 314.011719 316.097656 313.042969 316.746094 C 312.074219 317.394531 311.078125 317.992188 310.050781 318.542969 C 309.023438 319.089844 307.96875 319.589844 306.894531 320.035156 C 305.816406 320.480469 304.71875 320.871094 303.605469 321.210938 C 302.492188 321.546875 301.363281 321.832031 300.21875 322.058594 C 299.074219 322.285156 297.925781 322.457031 296.765625 322.570312 C 295.605469 322.683594 294.441406 322.742188 293.277344 322.742188 C 292.113281 322.742188 290.949219 322.683594 289.789062 322.570312 C 288.632812 322.457031 287.480469 322.285156 286.335938 322.058594 C 285.195312 321.832031 284.066406 321.546875 282.949219 321.210938 C 281.835938 320.871094 280.738281 320.480469 279.664062 320.035156 C 278.585938 319.589844 277.535156 319.089844 276.507812 318.542969 C 275.480469 317.992188 274.480469 317.394531 273.511719 316.746094 C 272.542969 316.097656 271.609375 315.40625 270.707031 314.667969 C 269.804688 313.925781 268.945312 313.144531 268.121094 312.320312 C 267.296875 311.496094 266.515625 310.636719 265.777344 309.734375 C 265.035156 308.835938 264.34375 307.898438 263.695312 306.929688 C 263.046875 305.960938 262.449219 304.964844 261.902344 303.9375 C 261.351562 302.90625 260.855469 301.855469 260.40625 300.78125 C 259.960938 299.703125 259.570312 298.605469 259.230469 297.492188 C 258.894531 296.378906 258.609375 295.25 258.382812 294.105469 C 258.15625 292.960938 257.984375 291.8125 257.871094 290.652344 C 257.757812 289.492188 257.699219 288.328125 257.699219 287.164062 C 257.699219 286 257.757812 284.835938 257.871094 283.675781 C 257.984375 282.515625 258.15625 281.367188 258.382812 280.222656 C 258.609375 279.082031 258.894531 277.953125 259.230469 276.835938 C 259.570312 275.722656 259.960938 274.625 260.40625 273.550781 C 260.855469 272.472656 261.351562 271.421875 261.902344 270.394531 C 262.449219 269.367188 263.046875 268.367188 263.695312 267.398438 C 264.34375 266.429688 265.035156 265.496094 265.777344 264.59375 C 266.515625 263.691406 267.296875 262.832031 268.121094 262.007812 C 268.945312 261.183594 269.804688 260.402344 270.707031 259.664062 C 271.609375 258.921875 272.542969 258.230469 273.511719 257.582031 C 274.480469 256.933594 275.480469 256.335938 276.507812 255.789062 C 277.535156 255.238281 278.585938 254.742188 279.664062 254.292969 C 280.738281 253.847656 281.835938 253.457031 282.949219 253.117188 C 284.066406 252.78125 285.195312 252.496094 286.335938 252.269531 C 287.480469 252.042969 288.632812 251.871094 289.789062 251.757812 C 290.949219 251.644531 292.113281 251.585938 293.277344 251.585938 C 294.441406 251.585938 295.605469 251.644531 296.765625 251.757812 C 297.925781 251.871094 299.074219 252.042969 300.21875 252.269531 C 301.363281 252.496094 302.492188 252.78125 303.605469 253.117188 C 304.71875 253.457031 305.816406 253.847656 306.894531 254.292969 C 307.96875 254.742188 309.023438 255.238281 310.050781 255.789062 C 311.078125 256.335938 312.074219 256.933594 313.042969 257.582031 C 314.011719 258.230469 314.949219 258.921875 315.847656 259.664062 C 316.75 260.402344 317.613281 261.183594 318.433594 262.007812 C 319.257812 262.832031 320.039062 263.691406 320.78125 264.59375 C 321.519531 265.496094 322.210938 266.429688 322.859375 267.398438 C 323.507812 268.367188 324.105469 269.367188 324.65625 270.394531 C 325.203125 271.421875 325.703125 272.472656 326.148438 273.550781 C 326.59375 274.625 326.984375 275.722656 327.324219 276.835938 C 327.664062 277.953125 327.945312 279.082031 328.171875 280.222656 C 328.398438 281.367188 328.570312 282.515625 328.683594 283.675781 C 328.796875 284.835938 328.855469 286 328.855469 287.164062 Z M 328.855469 287.164062 " fill-opacity="1" fill-rule="nonzero"/></g><g clip-path="url(#00a30fd916)"><g clip-path="url(#c407659626)"><path fill="#00d2f2" d="M 248.835938 251.585938 L 306.707031 251.585938 L 306.707031 331.609375 L 248.835938 331.609375 Z M 248.835938 251.585938 " fill-opacity="1" fill-rule="nonzero"/></g></g><g clip-path="url(#bfa3edd83a)"><g clip-path="url(#0c19926dae)"><path fill="#00d2f2" d="M 248.839844 331.605469 L 248.839844 269.757812 L 328.804688 269.757812 L 328.804688 331.605469 Z M 248.839844 331.605469 " fill-opacity="1" fill-rule="nonzero"/></g></g></svg>